Coordinates
version=1
nRows=16
nColumns=42
inDegrees=yes

Units are S.I. units (second, meters, Newtons, ...)
If the header above contains a line with 'inDegrees', this indicates whether rotational values are in degrees (yes) or radians (no).

endheader
time	pelvis_tilt	pelvis_list	pelvis_rotation	pelvis_tx	pelvis_ty	pelvis_tz	hip_flexion_r	hip_adduction_r	hip_rotation_r	knee_angle_r	knee_adduction_r	knee_angle_r_beta	ankle_angle_r	subtalar_angle_r	mtp_angle_r	hip_flexion_l	hip_adduction_l	hip_rotation_l	knee_angle_l	knee_adduction_l	knee_angle_l_beta	ankle_angle_l	subtalar_angle_l	mtp_angle_l	lumbar_extension	lumbar_bending	lumbar_rotation	arm_flex_r	arm_add_r	arm_rot_r	elbow_flex_r	pro_sup_r	wrist_flex_r	wrist_dev_r	arm_flex_l	arm_add_l	arm_rot_l	elbow_flex_l	pro_sup_l	wrist_flex_l	wrist_dev_l
      0.77000000	      7.69410240	     -1.84233823	     -2.13552785	     -0.41700898	      0.83177027	     -0.04497063	      4.62388208	      0.62447990	    -33.29731916	     28.91576950	     -8.61335823	      0.50467538	     26.16444316	     28.74707513	     -7.53625112	     18.59956218	     -6.81869502	     -5.79908967	     67.34102038	     -3.11011874	      1.17532253	      8.63337715	    -14.95986944	     -7.53625112	    -22.80441346	      2.61670778	      2.75280425	      2.26093395	    -17.33421301	     -6.32465404	     37.91908311	     90.00000001	      0.00000000	      0.00000000	     -0.67532901	     -7.95217959	    -19.04755607	     42.88011227	     90.00000001	      0.00000000	      0.00000000
      0.78000000	      7.78505922	     -1.48100852	     -2.57078724	     -0.40196062	      0.83301031	     -0.04342296	      2.75566113	      0.12926856	    -33.73923294	     27.92651303	     -8.17420626	      0.48740960	     26.72525316	     30.05357359	     -7.53319231	     19.88366345	     -6.28291371	     -6.91061814	     64.59261860	     -3.41483907	      1.12735387	      8.98428494	    -14.89172590	     -7.53319231	    -22.84697262	      1.94289551	      3.57014512	      2.37543490	    -17.65345163	     -5.80405110	     38.34345873	     90.00000001	      0.00000000	      0.00000000	     -1.24006084	     -7.87243162	    -20.46155572	     41.65709594	     90.00000001	      0.00000000	      0.00000000
      0.79000000	      7.84911512	     -1.19171174	     -3.02428937	     -0.38681218	      0.83370588	     -0.04186413	      0.93743005	     -0.34262373	    -34.26488329	     27.01235342	     -7.71910211	      0.47145451	     27.20704527	     31.38017980	     -7.52993915	     21.00700797	     -5.89646858	     -8.13455470	     61.50792553	     -3.67382033	      1.07351582	      9.34416419	    -14.87144392	     -7.52993915	    -22.83817883	      1.33779740	      4.41669770	      2.47985575	    -17.99926168	     -5.20929836	     38.82638151	     90.00000001	      0.00000000	      0.00000000	     -1.80849093	     -7.72914492	    -22.16822607	     40.57077113	     90.00000001	      0.00000000	      0.00000000
      0.80000000	      7.93209444	     -1.04451811	     -3.51760467	     -0.37157949	      0.83399090	     -0.04030837	     -0.95039182	     -0.58541683	    -34.33046192	     26.01743230	     -7.13844117	      0.45408986	     27.49902520	     31.64694390	     -7.52916970	     21.89598841	     -5.70399380	     -9.46160609	     58.06518455	     -3.90344661	      1.01342865	      9.67551350	    -15.00233895	     -7.52916970	    -22.85865528	      0.89929171	      5.27440292	      2.70053208	    -18.28851678	     -5.10850372	     39.12466901	     90.00000001	      0.00000000	      0.00000000	     -2.75646911	     -7.84085383	    -22.67261536	     39.93463829	     90.00000001	      0.00000000	      0.00000000
      0.81000000	      7.88634601	     -0.96916761	     -4.02702531	     -0.35618766	      0.83350174	     -0.03885893	     -2.52164717	     -1.00053794	    -35.28791013	     25.42603318	     -6.74789966	      0.44376799	     28.03971853	     33.57842457	     -7.52554452	     22.80651966	     -5.68101598	    -11.32860714	     54.41286428	     -4.40805020	      0.94968364	     10.00755766	    -14.63015092	     -7.52554452	    -22.65887475	      0.58437850	      6.19397540	      2.71735973	    -18.91736596	     -4.08356281	     39.83393540	     90.00000001	      0.00000000	      0.00000000	     -3.04498179	     -7.44575762	    -25.88502799	     38.43894088	     90.00000001	      0.00000000	      0.00000000
      0.82000000	      7.82329401	     -1.01872373	     -4.54982867	     -0.34070163	      0.83255666	     -0.03742419	     -4.10980854	     -1.21891591	    -35.86818288	     24.81302201	     -6.25932179	      0.43306893	     28.40946692	     34.48414092	     -7.52320637	     23.57914218	     -5.85033724	    -13.35552599	     50.55954744	     -4.87627108	      0.88243057	     10.47319480	    -13.98469182	     -7.52320637	    -22.46245311	      0.41133164	      7.10040652	      2.85569190	    -19.40844352	     -3.60020448	     40.25782144	     90.00000001	      0.00000000	      0.00000000	     -3.78324216	     -7.38539860	    -27.56261429	     37.47573493	     90.00000001	      0.00000000	      0.00000000
      0.83000000	      7.71973963	     -1.16484640	     -4.97821472	     -0.32517749	      0.83119441	     -0.03621095	     -5.66573425	     -1.29389284	    -36.29607265	     24.19706474	     -5.75803608	      0.42231845	     28.69952994	     35.08111651	     -7.52060092	     24.23733439	     -6.11471175	    -15.44181792	     46.48501849	     -5.26220051	      0.81131663	     11.15821621	    -12.72503601	     -7.52060092	    -22.22450530	      0.40006342	      7.91881275	      2.99507954	    -19.99443255	     -3.02711058	     40.72467972	     90.00000001	      0.00000000	      0.00000000	     -4.43266850	     -7.19924696	    -29.72063754	     36.63088947	     90.00000001	      0.00000000	      0.00000000
      0.84000000	      7.56917723	     -1.40293622	     -5.43954060	     -0.30957559	      0.82932486	     -0.03500679	     -7.09777000	     -1.30714794	    -36.76202003	     23.74960256	     -5.33093799	      0.41450876	     29.01798206	     35.69718334	     -7.51907345	     24.83335095	     -6.55812573	    -17.76560374	     42.39098329	     -5.57512737	      0.73986223	     12.07324764	    -10.57600309	     -7.51907345	    -21.93387158	      0.49961728	      8.75549102	      3.18619387	    -20.52482139	     -2.71145528	     41.09517810	     90.00000001	      0.00000000	      0.00000000	     -5.25317675	     -7.14688782	    -31.21189666	     35.92778103	     90.00000001	      0.00000000	      0.00000000
      0.85000000	      7.40854652	     -1.73630369	     -5.87419846	     -0.29384028	      0.82711477	     -0.03388118	     -8.50125921	     -1.18978908	    -37.08603935	     23.35985356	     -4.95023627	      0.40770636	     29.24933047	     36.02829997	     -7.51721935	     25.32177123	     -7.18584182	    -20.30066369	     38.33811165	     -5.70224577	      0.66912628	     13.44350912	     -6.91778646	     -7.51721935	    -21.63791172	      0.72226153	      9.51436659	      3.37814912	    -21.10199768	     -2.21413664	     41.49681692	     90.00000001	      0.00000000	      0.00000000	     -6.03529759	     -6.97563303	    -33.39513225	     35.26245815	     90.00000001	      0.00000000	      0.00000000
      0.86000000	      7.22557011	     -2.08218305	     -6.30961874	     -0.27803274	      0.82458175	     -0.03284360	     -9.79012105	     -1.07468383	    -37.36979801	     23.12454480	     -4.71110268	      0.40359944	     29.50837640	     36.37180023	     -7.51568726	     25.75411384	     -7.89574917	    -22.98345750	     34.47944064	     -5.60764735	      0.60177976	     14.91214422	     -2.29807764	     -7.51568726	    -21.32647404	      0.97641812	     10.21391787	      3.62259413	    -21.65403017	     -1.81096073	     41.82585642	     90.00000001	      0.00000000	      0.00000000	     -6.86480611	     -6.84291782	    -35.31653583	     34.70578235	     90.00000001	      0.00000000	      0.00000000
      0.87000000	      7.07795633	     -2.47252334	     -6.73632981	     -0.26217272	      0.82191210	     -0.03183949	    -11.05593550	     -0.92087658	    -37.47137642	     22.99810386	     -4.53571615	      0.40139263	     29.70926614	     36.56256181	     -7.51428664	     26.08088622	     -8.69337267	    -25.67237623	     30.94030118	     -5.28427271	      0.54001013	     16.36310355	      3.09886274	     -7.51428664	    -21.06695119	      1.27335575	     10.85162565	      3.89271262	    -22.16676795	     -1.40041298	     42.12993704	     90.00000001	      0.00000000	      0.00000000	     -7.69797141	     -6.73682281	    -37.28709401	     34.23381436	     90.00000001	      0.00000000	      0.00000000
      0.88000000	      6.88768955	     -2.75733306	     -7.12137227	     -0.24644157	      0.81921226	     -0.03099515	    -12.17035693	     -0.83067237	    -37.41958544	     22.92373137	     -4.53632323	      0.40009459	     29.77566223	     36.57657408	     -7.51394808	     26.19117438	     -9.06046966	    -26.57020222	     27.45951507	     -4.28575610	      0.47925895	     16.51533561	      5.22610970	     -7.51394808	    -20.79618705	      1.47772145	     11.40208008	      4.20190615	    -22.62108978	     -1.39976363	     42.34247518	     90.00000001	      0.00000000	      0.00000000	     -8.75354113	     -6.80402494	    -37.83161147	     33.93372348	     90.00000001	      0.00000000	      0.00000000
      0.89000000	      6.87384111	     -3.12816101	     -7.59966551	     -0.23022593	      0.81630321	     -0.03019783	    -13.43218044	     -0.90534347	    -37.45341429	     23.14046448	     -4.48376581	      0.40387730	     29.91904013	     36.97959318	     -7.51276922	     26.59197125	    -10.15265603	    -30.54295714	     25.48184645	     -4.13522106	      0.44474212	     18.55539543	     13.80277278	     -7.51276922	    -20.65231932	      1.75438385	     11.89740967	      4.49487128	    -23.17124476	     -0.83237611	     42.61293569	     90.00000001	      0.00000000	      0.00000000	     -9.47325732	     -6.50448536	    -40.59331607	     33.42404067	     90.00000001	      0.00000000	      0.00000000
      0.90000000	      6.86833572	     -3.35815774	     -8.02102317	     -0.21413917	      0.81363926	     -0.02942659	    -14.59317050	     -1.07140259	    -37.26021919	     23.40087466	     -4.57174404	      0.40842231	     29.86081213	     37.14851282	     -7.51164567	     26.71976756	    -10.70442714	    -32.26543248	     23.64544172	     -3.45223640	      0.41269081	     19.14052454	     17.88705907	     -7.51164567	    -20.56499101	      1.86156370	     12.28741004	      4.80042051	    -23.61910565	     -0.44585841	     42.84574691	     90.00000001	      0.00000000	      0.00000000	    -10.18721199	     -6.39624374	    -42.72565051	     32.93771000	     90.00000001	      0.00000000	      0.00000000
      0.91000000	      6.76032366	     -3.61436055	     -8.36764880	     -0.19802818	      0.81086222	     -0.02866730	    -15.57953061	     -1.17496652	    -37.15807613	     23.68447840	     -4.81111977	      0.41337213	     29.82606702	     37.17915922	     -7.51161908	     27.20071793	    -11.12333931	    -32.53927800	     22.86458986	     -2.94381076	      0.39906238	     19.12934599	     18.05326250	     -7.51161908	    -20.35669867	      2.01777062	     12.69731424	      4.96269682	    -23.96817337	     -0.53989703	     42.89788575	     90.00000001	      0.00000000	      0.00000000	    -11.24332524	     -6.62149351	    -42.97773447	     32.62756809	     90.00000001	      0.00000000	      0.00000000
      0.92000000	      7.15843892	     -3.52677422	     -8.84867817	     -0.18154034	      0.80894376	     -0.02815669	    -17.02653372	     -1.89768942	    -36.45571788	     24.18308859	     -4.84857177	      0.42207452	     29.25275069	     37.39658358	     -7.51051089	     26.72943734	    -11.14609218	    -33.85996098	     21.92877574	     -2.65497140	      0.38272934	     19.61013273	     22.10219044	     -7.51051089	    -20.66959753	      1.69977607	     12.83425823	      5.35260738	    -24.22297155	     -0.21763403	     43.21628217	     90.00000001	      0.00000000	      0.00000000	    -11.61176758	     -6.38029079	    -45.58335691	     31.95623698	     90.00000001	      0.00000000	      0.00000000
